<?xml version="1.0" encoding="UTF-8"?>
<svg id="Capa_1" xmlns="http://www.w3.org/2000/svg" version="1.1" viewBox="0 0 54.71 54.71">
  <!-- Generator: Adobe Illustrator 30.2.1, SVG Export Plug-In . SVG Version: 2.1.1 Build 1)  -->
  <defs>
    <style>
      .st0 {
        fill: var(--action-illustration-strong, #7bbcb9);
      }

      .st1 {
        fill: var(--action-illustration-muted, #cee6e5);
      }
    </style>
  </defs>
  <path class="st0" d="M28.94,29.91c2.36-1.38,3.84-3.91,3.84-6.68,0-4.27-3.47-7.74-7.74-7.74s-7.74,3.47-7.74,7.74c0,2.76,1.48,5.3,3.84,6.68-5.75,1.73-9.84,6.97-9.84,12.75h27.49c0-5.78-4.09-11.02-9.85-12.75Z"/>
  <path class="st1" d="M7.21,7.21c-9.38,9.38-9.38,24.6,0,33.98,8.49,8.49,21.76,9.3,31.16,2.42l9.84,9.84c1.45,1.45,3.79,1.45,5.24,0,1.45-1.45,1.45-3.79,0-5.24l-9.84-9.84c6.88-9.4,6.07-22.66-2.42-31.16C31.8-2.18,16.59-2.18,7.21,7.21ZM37.33,37.33c-7.11,7.11-18.64,7.11-25.76,0-7.12-7.11-7.11-18.64,0-25.76,7.11-7.12,18.64-7.11,25.76,0,7.11,7.11,7.11,18.64,0,25.76Z"/>
</svg>