<?xml version="1.0" encoding="UTF-8"?>
<svg id="Capa_1" xmlns="http://www.w3.org/2000/svg" version="1.1" viewBox="0 0 54.71 54.71">
  <!-- Generator: Adobe Illustrator 30.2.1, SVG Export Plug-In . SVG Version: 2.1.1 Build 1)  -->
  <defs>
    <style>
      .st0 {
        fill: #7bbcb9;
      }

      .st1 {
        fill: #cee6e5;
      }
    </style>
  </defs>
  <path class="st1" d="M47.29,9.75H7.41c-.28,0-.51.23-.51.51v38.45c0,.28.23.51.51.51h39.88c.28,0,.51-.23.51-.51V10.27c0-.28-.23-.51-.51-.51h0Z"/>
  <path class="st0" d="M41.59,33.97h-11.4c-.28,0-.51.23-.51.51v5.7c0,.28.23.51.51.51h11.4c.28,0,.51-.23.51-.51v-5.7c0-.28-.23-.51-.51-.51Z"/>
  <path class="st0" d="M24.5,33.97h-11.4c-.28,0-.51.23-.51.51v5.7c0,.28.23.51.51.51h11.4c.28,0,.51-.23.51-.51v-5.7c0-.28-.23-.51-.51-.51Z"/>
  <path class="st0" d="M41.59,21.15h-11.4c-.28,0-.51.23-.51.51v5.7c0,.28.23.51.51.51h11.4c.28,0,.51-.23.51-.51v-5.7c0-.28-.23-.51-.51-.51Z"/>
  <path class="st0" d="M24.5,21.15h-11.4c-.28,0-.51.23-.51.51v5.7c0,.28.23.51.51.51h11.4c.28,0,.51-.23.51-.51v-5.7c0-.28-.23-.51-.51-.51Z"/>
  <path class="st0" d="M37.32,15.05c-1.07,0-1.94-.87-1.94-1.94v-5.69c0-1.07.87-1.94,1.94-1.94s1.94.87,1.94,1.94v5.7c0,1.07-.87,1.94-1.94,1.94h0Z"/>
  <path class="st0" d="M17.38,15.05c-1.07,0-1.94-.87-1.94-1.94v-5.69c0-1.07.87-1.94,1.94-1.94s1.94.87,1.94,1.94v5.7c0,1.07-.87,1.94-1.94,1.94h0Z"/>
  <path class="st1" d="M33.04,9.75h-11.39v1.03h11.39v-1.03Z"/>
</svg>