<?xml version="1.0" encoding="UTF-8"?>
<svg id="Capa_1" xmlns="http://www.w3.org/2000/svg" version="1.1" viewBox="0 0 54.71 54.71">
  <!-- Generator: Adobe Illustrator 30.2.1, SVG Export Plug-In . SVG Version: 2.1.1 Build 1)  -->
  <defs>
    <style>
      .st0 {
        fill: var(--action-illustration-strong, #7bbcb9);
      }

      .st0, .st1 {
        fill-rule: evenodd;
      }

      .st1 {
        fill: var(--action-illustration-muted, #cee6e5);
      }
    </style>
  </defs>
  <path class="st1" d="M22.65,15.2c.66-.47.88-1.41.78-2.35.09-3.93-3.11-7.06-7.06-7.06s-7.15,3.13-7.06,7.06c-.09,2.8,1.65,5.26,3.92,6.27-5.3,1.37-9.41,6.2-9.41,11.77v11.76h21.96V15.2h-3.14Z"/>
  <path class="st1" d="M50.88,42.65v-11.76c0-5.56-4.11-10.41-9.41-11.77,2.27-1.02,4.02-3.47,3.92-6.27.09-3.93-3.11-7.06-7.06-7.06s-7.15,3.13-7.06,7.06c-.09.94.11,1.88.78,2.35h-3.14v27.45h21.96Z"/>
  <path class="st0" d="M16.37,48.92v-11.52c0-5.81,4.11-10.66,9.65-11.93-2.51-1.09-4.25-3.55-4.25-6.41,0-3.87,3.2-7,7.15-7s7.15,3.13,7.15,7c0,2.86-1.74,5.31-4.25,6.41,5.54,1.29,9.65,6.13,9.65,11.93v11.52"/>
</svg>