<svg xmlns="http://www.w3.org/2000/svg" viewBox="0 0 54.71 54.71">
  <g fill="none" fill-rule="evenodd">
    <circle cx="27.36" cy="27.36" r="27.36" fill="#d8e4f3" opacity=".58"/>
    <path fill="#9fb9d9" d="M18.44 15.42h17.83v5.24H18.44z"/>
    <path fill="#9fb9d9" d="M20.56 19.31h13.6c1.46 0 2.65 1.19 2.65 2.65v19.1c0 1.46-1.19 2.65-2.65 2.65h-13.6a2.65 2.65 0 0 1-2.65-2.65v-19.1c0-1.46 1.19-2.65 2.65-2.65z"/>
    <path fill="#fff" opacity=".7" d="M22.21 25.03h10.29v4.28h-10.29z"/>
    <path fill="#fff" opacity=".7" d="M25.45 21.67h3.82v11h-3.82z"/>
    <path fill="#6f95c2" d="M20.42 13.3h13.88a1.7 1.7 0 0 1 1.7 1.7v1.17H18.72V15a1.7 1.7 0 0 1 1.7-1.7z"/>
    <path fill="#c7d8ec" d="M17.1 36.15h20.52v5.42c0 2.07-1.68 3.75-3.75 3.75H20.85a3.75 3.75 0 0 1-3.75-3.75z"/>
  </g>
</svg>
