<?xml version="1.0" encoding="UTF-8"?>
<svg id="Capa_1" xmlns="http://www.w3.org/2000/svg" version="1.1" viewBox="0 0 80 80">
  <!-- Generator: Adobe Illustrator 30.2.1, SVG Export Plug-In . SVG Version: 2.1.1 Build 1)  -->
  <defs>
    <style>
      .st0 {
        fill: #7bbcb9;
      }

      .st1 {
        fill: #cee6e5;
      }
    </style>
  </defs>
  <path class="st0" d="M65.98,4H14.02c-.37,0-.66.42-.66.92v70.16c0,.51.3.92.66.92h51.96c.37,0,.66-.42.66-.92V4.95c0-.51-.3-.92-.66-.92h0s0-.03,0-.03Z"/>
  <path class="st1" d="M31.22,7.25h-14.11c-.35,0-.63.22-.63.48v5.38c0,.26.29.48.63.48h14.11c.35,0,.63-.22.63-.48v-5.38c0-.26-.29-.48-.63-.48Z"/>
  <path class="st1" d="M63.72,7.25h-29.37c-.35,0-.63.22-.63.48v5.38c0,.26.29.48.63.48h29.37c.35,0,.63-.22.63-.48v-5.38c0-.26-.29-.48-.63-.48Z"/>
  <path class="st1" d="M63.64,54.84H17.13c-.26,0-.63.21-.63.47v17.03c0,.26.29.47.63.47h46.6c.35,0,.63-.21.63-.47v-17.03c0-.26-.29-.47-.72-.47Z"/>
  <path class="st1" d="M63.64,35.15H17.13c-.26,0-.63.21-.63.47v17.03c0,.26.29.47.63.47h46.6c.35,0,.63-.21.63-.47v-17.03c0-.26-.29-.47-.72-.47Z"/>
  <polygon class="st1" points="50.72 25.57 53.01 25.57 51.86 21.83 50.72 25.57"/>
  <path class="st1" d="M63.64,15.46H17.13c-.26,0-.63.21-.63.47v17.03c0,.26.29.47.63.47h46.6c.35,0,.63-.21.63-.47V15.93c0-.26-.29-.47-.72-.47ZM33.89,21.36h-4.73v1.83h4.04v2.11h-4.04v4.26h-3.25v-10.43h7.97v2.24h0ZM45.63,25.34c0,.61-.09,1.2-.29,1.74s-.49,1.03-.89,1.43c-.4.4-.85.71-1.29.86-.63.23-1.38.35-2.25.35-.51,0-1.06-.04-1.66-.11s-1.11-.21-1.51-.43-.77-.51-1.11-.89-.56-.8-.69-1.2c-.2-.66-.3-1.25-.3-1.76v-6.22h3.22v6.36c0,.57.15,1.02.47,1.33.31.32.75.48,1.32.48s.99-.15,1.31-.47c.31-.31.47-.75.47-1.34v-6.36h3.22v6.22h-.02ZM54.2,29.56l-.52-1.72h-3.66l-.51,1.72h-3.29l3.92-10.43h3.52l3.92,10.43h-3.38Z"/>
</svg>