<?xml version="1.0" encoding="UTF-8"?>
<svg id="Capa_1" xmlns="http://www.w3.org/2000/svg" version="1.1" viewBox="0 0 54.71 72.01">
  <!-- Generator: Adobe Illustrator 30.2.1, SVG Export Plug-In . SVG Version: 2.1.1 Build 1)  -->
  <defs>
    <style>
      .st0 {
        fill: var(--action-illustration-strong, #7bbcb9);
      }

      .st1 {
        fill: var(--action-illustration-muted, #cee6e5);
      }
    </style>
  </defs>
  <path class="st0" d="M53.33,0H1.37C1,0,.71.42.71.92v70.17c0,.51.3.92.66.92h51.96c.37,0,.66-.42.66-.92V.95c0-.51-.3-.92-.66-.92h0s0-.03,0-.03Z"/>
  <path class="st1" d="M18.57,3.25H4.46c-.35,0-.63.22-.63.48v5.38c0,.26.29.48.63.48h14.11c.35,0,.63-.22.63-.48V3.73c0-.26-.29-.48-.63-.48Z"/>
  <path class="st1" d="M51.07,3.25h-29.37c-.35,0-.63.22-.63.48v5.38c0,.26.29.48.63.48h29.37c.35,0,.63-.22.63-.48V3.73c0-.26-.29-.48-.63-.48Z"/>
  <path class="st1" d="M50.99,50.84H4.48c-.26,0-.63.21-.63.47v17.03c0,.26.29.47.63.47h46.6c.35,0,.63-.21.63-.47v-17.03c0-.26-.29-.47-.72-.47Z"/>
  <path class="st1" d="M50.99,31.16H4.48c-.26,0-.63.21-.63.47v17.03c0,.26.29.47.63.47h46.6c.35,0,.63-.21.63-.47v-17.03c0-.26-.29-.47-.72-.47Z"/>
  <polygon class="st1" points="38.07 21.57 40.36 21.57 39.21 17.83 38.07 21.57"/>
  <path class="st1" d="M50.99,11.47H4.48c-.26,0-.63.21-.63.47v17.03c0,.26.29.47.63.47h46.6c.35,0,.63-.21.63-.47V11.93c0-.26-.29-.47-.72-.47h0ZM21.24,17.36h-4.73v1.83h4.04v2.11h-4.04v4.26h-3.25v-10.42h7.97v2.24h0v-.02ZM32.98,21.34c0,.61-.09,1.2-.29,1.74s-.49,1.03-.89,1.43c-.4.4-.85.71-1.29.86-.63.23-1.38.35-2.25.35-.51,0-1.06-.04-1.66-.11s-1.11-.21-1.51-.43-.77-.51-1.11-.89-.56-.8-.69-1.2c-.2-.66-.3-1.25-.3-1.76v-6.22h3.22v6.36c0,.57.15,1.02.47,1.33.31.32.75.48,1.32.48s.99-.15,1.31-.47c.31-.31.47-.75.47-1.34v-6.36h3.22v6.22h-.02,0ZM41.55,25.57l-.52-1.72h-3.66l-.51,1.72h-3.29l3.92-10.43h3.52l3.92,10.43h-3.38Z"/>
</svg>
