<?xml version="1.0" encoding="UTF-8"?>
<svg id="Capa_1" xmlns="http://www.w3.org/2000/svg" version="1.1" viewBox="0 0 54.71 54.71">
  <!-- Generator: Adobe Illustrator 30.2.1, SVG Export Plug-In . SVG Version: 2.1.1 Build 1)  -->
  <defs>
    <style>
      .st0 {
        fill: #7bbcb9;
      }

      .st1 {
        fill: #cee6e5;
      }
    </style>
  </defs>
  <path class="st1" d="M37.13,42.35h3.66c1.15-2.11,1.76-4.5,1.76-6.93,0-5.11-2.69-9.81-7.06-12.42-.89,1.49-2.52,2.48-4.38,2.48-.86,0-1.67-.21-2.39-.59l-5.02,8.7c-.16.29-.52.38-.81.22l-2.09-1.21-.91,1.58,2.09,1.21c.14.08.23.21.27.36.04.15.02.31-.06.45l-1.5,2.6c-.16.28-.52.38-.81.22l-7.81-4.51c-.28-.16-.38-.52-.22-.81l1.5-2.6c.08-.14.21-.24.36-.28.15-.04.31-.02.45.06l2.09,1.21.91-1.58-2.09-1.21c-.14-.08-.23-.21-.27-.36-.04-.15-.02-.31.06-.45L29.91,2.45c.16-.28.53-.38.81-.22l7.81,4.51c.14.08.24.21.28.36s.02.31-.06.45l-4.92,8.51c1.44.9,2.39,2.5,2.39,4.32,0,.53-.08,1.05-.24,1.54,4.79,2.8,7.75,7.93,7.75,13.5,0,2.41-.56,4.78-1.61,6.93h4.03"/>
  <path class="st0" d="M13.18,33.78l6.79,3.92.91-1.58-4.7-2.71s-.02,0-.02-.01l-2.07-1.2-.91,1.58Z"/>
  <path class="st1" d="M18.09,33.14l.78.45.92-1.58-1.58-.92-.92,1.59.8.46Z"/>
  <path class="st0" d="M28.95,23.65c.62.41,1.37.65,2.17.65,1.59,0,2.97-.96,3.58-2.32,0-.02.02-.04.03-.06.2-.47.31-.99.31-1.54,0-2.16-1.76-3.92-3.92-3.92s-3.92,1.76-3.92,3.92c0,1.29.62,2.43,1.58,3.14.01,0,.03,0,.05.02.05.03.09.06.13.1h0Z"/>
  <path class="st1" d="M41.21,42.35h4.03c.33,0,.59.26.59.59v9.02c0,.33-.26.59-.59.59H9.15c-.24,0-.45-.14-.55-.37-.1-.23-.04-.47.13-.64l6.02-6.01c.11-.11.26-.17.42-.17h20.46v-2.42c0-.33.26-.59.59-.59h3.66"/>
</svg>