<?xml version="1.0" encoding="UTF-8"?>
<svg id="Capa_1" xmlns="http://www.w3.org/2000/svg" version="1.1" viewBox="0 0 54.71 54.71">
  <!-- Generator: Adobe Illustrator 30.2.1, SVG Export Plug-In . SVG Version: 2.1.1 Build 1)  -->
  <defs>
    <style>
      .st0 {
        fill: var(--action-illustration-strong, #7bbcb9);
      }

      .st1 {
        fill: var(--action-illustration-muted, #cee6e5);
      }
    </style>
  </defs>
  <path class="st1" d="M37.58,47.45H8.37c-.3,0-.52-.24-.52-.52V10.42c0-.3.24-.52.52-.52h11.15V3.12c0-.3.24-.52.52-.52h5.84c.29,0,.52.24.52.52v6.77h11.15c.3,0,.52.24.52.52v36.51c0,.29-.24.52-.52.52h.01Z"/>
  <path class="st0" d="M24.18,42.02h-10.23v1.05h10.23v-1.05Z"/>
  <path class="st0" d="M31.47,39.1H13.95v1.05h17.52v-1.05Z"/>
  <path class="st0" d="M25.85,26.69c1.74-1.02,2.83-2.9,2.83-4.93,0-3.15-2.57-5.71-5.71-5.71s-5.71,2.57-5.71,5.71c0,2.04,1.09,3.91,2.84,4.93-4.25,1.28-7.26,5.15-7.26,9.42h20.3c0-4.27-3.03-8.14-7.27-9.42h-.01Z"/>
  <path class="st0" d="M38.1,52.12h4.1v-4.38c0-.15.12-.28.28-.28h4.38v-4.1h-4.38c-.15,0-.28-.12-.28-.28v-4.38h-4.1v4.38c0,.15-.12.28-.28.28h-4.38v4.1h4.38c.15,0,.28.12.28.28v4.38Z"/>
</svg>