<svg xmlns="http://www.w3.org/2000/svg" width="1200" height="1200" viewBox="0 0 1200 1200" role="img" aria-labelledby="title desc">
  <title id="title">SIH.SALUS</title>
  <desc id="desc">Sistema de informacion en salud</desc>
  <defs>
    <linearGradient id="background" x1="0" y1="0" x2="1" y2="1">
      <stop offset="0" stop-color="#17205f" />
      <stop offset="0.58" stop-color="#27348b" />
      <stop offset="1" stop-color="#2c7d35" />
    </linearGradient>
    <filter id="softShadow" x="-20%" y="-20%" width="140%" height="140%">
      <feDropShadow dx="0" dy="18" stdDeviation="24" flood-color="#07103a" flood-opacity="0.32" />
    </filter>
  </defs>

  <rect width="1200" height="1200" fill="url(#background)" />

  <g transform="translate(0 285)">
  <rect width="1200" height="630" fill="url(#background)" />
  <path d="M0 512C168 455 285 468 432 509c173 49 323 55 476-11 106-45 190-60 292-40v172H0Z" fill="#ffffff" opacity="0.1" />
  <path d="M932 0h268v630H760c124-126 170-254 172-630Z" fill="#0f184f" opacity="0.22" />

  <g filter="url(#softShadow)">
    <rect x="80" y="92" width="1040" height="446" rx="28" fill="#ffffff" opacity="0.96" />
    <rect x="80" y="92" width="1040" height="12" rx="6" fill="#2c7d35" />
  </g>

  <g transform="translate(134 162)">
    <path d="M72 263c-18-45-18-79 9-97 29-19 97 7 160 39 88 45 151 61 184 52-53 29-151-1-151-1l-155-63c-78-25-51 45-47 70Z" fill="#27348b" />
    <path d="M245 43c-65 82-82 171-54 265-45-20-99-37-128-32C63 276 94 111 245 43Z" fill="#2c7d35" />
    <path d="M252 67c-42 84-35 139 20 209-43 18-61 59-66 86-32-91-5-207 46-295Z" fill="#2c7d35" />
  </g>

  <text x="420" y="286" fill="#27348b" font-family="Inter, Arial, Helvetica, sans-serif" font-size="92" font-weight="800" letter-spacing="2">SIH.SALUS</text>
  <text x="424" y="352" fill="#2c7d35" font-family="Inter, Arial, Helvetica, sans-serif" font-size="34" font-weight="700">Sistema de información en salud</text>
  <text x="424" y="408" fill="#38446f" font-family="Inter, Arial, Helvetica, sans-serif" font-size="25" font-weight="500">Historia clínica electrónica para atención integrada</text>
  </g>
</svg>
