<svg xmlns="http://www.w3.org/2000/svg" width="1200" height="630" viewBox="0 0 1200 630" role="img" aria-labelledby="title desc">
  <title id="title">SIH.SALUS</title>
  <desc id="desc">Sistema de información en salud</desc>
  <defs>
    <style>
      .brand-blue { fill: #27348b; }
      .brand-green { fill: #2c7d35; }
      .muted { fill: #4f5b7a; }
    </style>
  </defs>

  <rect width="1200" height="630" fill="#f7f9fc" />
  <rect y="0" width="1200" height="28" fill="#27348b" />
  <rect y="28" width="1200" height="8" fill="#2c7d35" />
  <rect y="548" width="1200" height="82" fill="#27348b" />
  <rect y="548" width="1200" height="8" fill="#2c7d35" />

  <g opacity="0.08" transform="translate(835 98) scale(0.82)">
    <path class="brand-green" d="M258.85,0s-131.34,141.89-60.39,346.28c0,0-104.9-49.35-134.62-35.93C63.84,310.35,95.32,109.54,258.85,0Z"/>
    <path class="brand-green" d="M263.25,30.42s-104.49,152.43-49.85,311.57c0,0,9.59-71.9,75.73-97.78,0,0-74.78-92.99-25.88-213.78h0Z"/>
    <path class="brand-blue" d="M42.75,443.6s-37.22-93.95,68.15-59.44l197.4,79.57s111.21,33.55,172.56,0c0,0-66.02,22.63-237.51-66.15,0,0-200.6-94.91-237.03-66.15,0,0-28.76,31.64,36.43,112.16h0Z"/>
  </g>

  <g transform="translate(120 178) scale(0.37)">
    <path class="brand-green" d="M258.85,0s-131.34,141.89-60.39,346.28c0,0-104.9-49.35-134.62-35.93C63.84,310.35,95.32,109.54,258.85,0Z"/>
    <path class="brand-green" d="M263.25,30.42s-104.49,152.43-49.85,311.57c0,0,9.59-71.9,75.73-97.78,0,0-74.78-92.99-25.88-213.78h0Z"/>
    <path class="brand-blue" d="M42.75,443.6s-37.22-93.95,68.15-59.44l197.4,79.57s111.21,33.55,172.56,0c0,0-66.02,22.63-237.51-66.15,0,0-200.6-94.91-237.03-66.15,0,0-28.76,31.64,36.43,112.16h0Z"/>
    <path class="brand-blue" d="M392.99,287.7h199.09c8.64,0,12.83-4.18,12.83-9.76v-3.07c0-5.02-4.74-8.92-11.15-9.48l-156.99-12.27c-28.72-2.23-49.08-15.06-49.08-43.78v-11.71c0-29,20.91-45.73,53.26-45.73h196.31v39.04h-192.68c-7.81,0-11.99,4.74-11.99,9.48v3.62c0,4.46,3.07,9.48,10.88,10.32l161.73,12.55c26.21,1.95,44.61,16.17,44.61,44.34v10.88c0,26.21-23.42,44.61-53.26,44.61h-203.56v-39.04Z"/>
    <path class="brand-blue" d="M687.45,151.9h44.89v174.83h-44.89v-174.83Z"/>
    <path class="brand-blue" d="M772.77,151.9h45.17v67.2h166.75v-67.2h44.89v174.83h-44.89v-68.32h-166.75v68.32h-45.17v-174.83Z"/>
    <path class="brand-green" d="M1158.18,287.7h199.09c8.64,0,12.83-4.18,12.83-9.76v-3.07c0-5.02-4.74-8.92-11.15-9.48l-156.99-12.27c-28.72-2.23-49.08-15.06-49.08-43.78v-11.71c0-29,20.91-45.73,53.26-45.73h196.31v39.04h-192.68c-7.81,0-11.99,4.74-11.99,9.48v3.62c0,4.46,3.07,9.48,10.88,10.32l161.73,12.55c26.21,1.95,44.61,16.17,44.61,44.34v10.88c0,26.21-23.42,44.61-53.26,44.61h-203.55v-39.04Z"/>
    <path class="brand-green" d="M1640.03,292.72h-140.82l-24.82,34.02h-52.7l128.82-174.83h38.76l128.55,174.83h-53.26l-24.54-34.02ZM1611.31,253.4l-41.83-57.72-41.83,57.72h83.65Z"/>
    <path class="brand-green" d="M1742.09,151.9h45.17v135.8h203.28v39.04h-248.45v-174.83Z"/>
    <path class="brand-green" d="M2021.77,270.69v-118.79h44.89v110.7c0,16.17,10.04,25.1,26.21,25.1h119.9c18.68,0,27.05-7.81,27.05-25.1l-.28-110.7h44.34v118.79c0,35.14-24.82,56.05-63.58,56.05h-134.96c-37.92,0-63.58-21.47-63.58-56.05Z"/>
    <path class="brand-green" d="M2324.6,287.7h199.09c8.64,0,12.83-4.18,12.83-9.76v-3.07c0-5.02-4.74-8.92-11.15-9.48l-156.99-12.27c-28.72-2.23-49.08-15.06-49.08-43.78v-11.71c0-29,20.91-45.73,53.26-45.73h196.31v39.04h-192.68c-7.81,0-11.99,4.74-11.99,9.48v3.62c0,4.46,3.07,9.48,10.88,10.32l161.73,12.55c26.21,1.95,44.61,16.17,44.61,44.34v10.88c0,26.21-23.42,44.61-53.26,44.61h-203.55v-39.04Z"/>
  </g>

  <text x="128" y="407" class="brand-green" font-family="Arial, Helvetica, sans-serif" font-size="38" font-weight="700">Historia clínica electrónica para atención integrada</text>
</svg>
