<?xml version="1.0" encoding="UTF-8"?>
<svg id="Capa_1" xmlns="http://www.w3.org/2000/svg" version="1.1" viewBox="0 0 80 80">
  <!-- Generator: Adobe Illustrator 30.2.1, SVG Export Plug-In . SVG Version: 2.1.1 Build 1)  -->
  <defs>
    <style>
      .st0 {
        fill: #7bbcb9;
      }

      .st1 {
        fill: #cee6e5;
      }
    </style>
  </defs>
  <path class="st0" d="M66.54,6.82H14.58c-.37,0-.66.42-.66.92v70.16c0,.51.3.92.66.92h51.96c.37,0,.66-.42.66-.92V7.77c0-.51-.3-.92-.66-.92h0v-.03Z"/>
  <path class="st1" d="M31.78,10.07h-14.11c-.35,0-.63.22-.63.48v5.38c0,.26.29.48.63.48h14.11c.35,0,.63-.22.63-.48v-5.38c0-.26-.29-.48-.63-.48Z"/>
  <path class="st1" d="M64.28,10.07h-29.37c-.35,0-.63.22-.63.48v5.38c0,.26.29.48.63.48h29.37c.35,0,.63-.22.63-.48v-5.38c0-.26-.29-.48-.63-.48Z"/>
  <path class="st1" d="M64.2,57.66H17.69c-.26,0-.63.21-.63.47v17.03c0,.26.29.47.63.47h46.6c.35,0,.63-.21.63-.47v-17.03c0-.26-.29-.47-.72-.47Z"/>
  <path class="st1" d="M64.2,37.97H17.69c-.26,0-.63.21-.63.47v17.03c0,.26.29.47.63.47h46.6c.35,0,.63-.21.63-.47v-17.03c0-.26-.29-.47-.72-.47Z"/>
  <polygon class="st1" points="51.28 28.39 53.57 28.39 52.42 24.65 51.28 28.39"/>
  <path class="st1" d="M64.2,18.28H17.69c-.26,0-.63.21-.63.47v17.03c0,.26.29.47.63.47h46.6c.35,0,.63-.21.63-.47v-17.03c0-.26-.29-.47-.72-.47ZM34.45,24.18h-4.73v1.83h4.04v2.11h-4.04v4.26h-3.25v-10.43h7.97v2.24h0ZM46.19,28.16c0,.61-.09,1.2-.29,1.74s-.49,1.03-.89,1.43c-.4.4-.85.71-1.29.86-.63.23-1.38.35-2.25.35-.51,0-1.06-.04-1.66-.11s-1.11-.21-1.51-.43-.77-.51-1.11-.89-.56-.8-.69-1.2c-.2-.66-.3-1.25-.3-1.76v-6.22h3.22v6.36c0,.57.15,1.02.47,1.33.31.32.75.48,1.32.48s.99-.15,1.31-.47c.31-.31.47-.75.47-1.34v-6.36h3.22v6.22h0,0ZM54.76,32.38l-.52-1.72h-3.66l-.51,1.72h-3.29l3.92-10.43h3.52l3.92,10.43h-3.37Z"/>
</svg>