<svg xmlns="http://www.w3.org/2000/svg">
<path d="M11.35 1.5C10.5 1.22 9.57 1.4 8.77 1.67C8.43 1.78 8.17 1.87 8 1.87C7.83 1.87 7.57 1.78 7.23 1.67C6.43 1.4 5.5 1.22 4.65 1.5C2.75 2.13 1.95 4.16 2.52 6.5L3.92 12.2C4.32 13.85 5.04 15 6.02 15C6.9 15 7.22 14.05 7.57 13C7.73 12.52 7.91 11.98 8 11.8C8.09 11.98 8.27 12.52 8.43 13C8.78 14.05 9.1 15 9.98 15C10.96 15 11.68 13.85 12.08 12.2L13.48 6.5C14.05 4.16 13.25 2.13 11.35 1.5ZM12.5 6.25L11.1 11.95C10.74 13.43 10.3 13.95 10.12 14C9.94 13.8 9.68 13.02 9.54 12.6C9.18 11.5 8.84 10.5 8 10.5C7.16 10.5 6.82 11.5 6.46 12.6C6.32 13.02 6.06 13.8 5.88 14C5.7 13.95 5.26 13.43 4.9 11.95L3.5 6.25C3.08 4.48 3.6 3 4.98 2.53C5.53 2.35 6.26 2.53 6.91 2.75C7.36 2.9 7.71 3 8 3C8.29 3 8.64 2.9 9.09 2.75C9.74 2.53 10.47 2.35 11.02 2.53C12.4 3 12.92 4.48 12.5 6.25Z" />
</svg>
