<svg width="183" height="60" viewBox="0 0 183 60" fill="none" xmlns="http://www.w3.org/2000/svg">
<path d="M58.556 29.9987C58.556 35.6477 56.8808 41.1699 53.7424 45.867C50.6039 50.564 46.1431 54.2249 40.9241 56.3867C35.705 58.5485 29.9621 59.1141 24.4216 58.012C18.8811 56.9099 13.7918 54.1897 9.79731 50.1952C5.80283 46.2007 3.08254 41.1114 1.98047 35.5709C0.87839 30.0304 1.44402 24.2875 3.60582 19.0684C5.76762 13.8494 9.4285 9.38856 14.1255 6.25011C18.8225 3.11166 24.3447 1.43652 29.9938 1.43652C33.7446 1.43652 37.4587 2.17531 40.9241 3.61069C44.3894 5.04607 47.5381 7.14994 50.1903 9.80218C52.8425 12.4544 54.9464 15.6031 56.3818 19.0684C57.8172 22.5337 58.556 26.2478 58.556 29.9987" fill="#042354"/>
<path d="M29.9968 7.02445e-07C24.0633 0.000642676 18.2633 1.76074 13.3302 5.05771C8.39709 8.35469 4.55242 13.0405 2.28238 18.5225C0.0123498 24.0045 -0.581098 30.0366 0.577088 35.8559C1.73527 41.6752 4.59307 47.0204 8.7891 51.2155C12.9851 55.4106 18.3309 58.2672 24.1505 59.4242C29.97 60.5811 36.002 59.9863 41.4835 57.7151C46.965 55.4439 51.65 51.5982 54.9459 46.6644C58.2418 41.7306 60.0006 35.9302 60 29.9967C60 26.057 59.2239 22.1558 57.716 18.516C56.2081 14.8762 53.998 11.5691 51.2119 8.78355C48.4257 5.99801 45.1181 3.7886 41.478 2.2815C37.8379 0.774408 33.9365 -0.000851878 29.9968 7.02445e-07V7.02445e-07ZM30.8341 57.3418C17.1146 58.2246 6.88089 47.6663 4.73549 41.1814C4.80365 41.1295 4.9562 41.0386 4.9562 41.0386C8.27005 40.1006 11.4833 41.7884 15.1282 44.8523C17.7637 47.0691 23.0218 53.1418 29.4677 56.0565C29.9538 56.33 30.4645 56.5571 30.9932 56.7348C30.9932 56.8095 30.8731 57.186 30.8341 57.3418V57.3418ZM40.5258 55.3002C40.0779 55.4657 36.7251 56.5336 34.1188 55.8098C33.619 55.6637 33.1451 55.5079 32.655 55.3294C29.0847 54.0084 25.7968 51.8241 22.6842 49.3995C18.7634 46.3388 15.9039 42.3758 10.6362 39.8961C10.6714 39.8106 10.6964 39.7213 10.7108 39.63C13.6319 39.974 17.3061 40.3343 22.1292 43.2911C23.9922 44.4304 31.6358 48.9386 32.655 49.4385C34.7191 50.4401 36.8607 51.2737 39.0587 51.9312C40.302 52.2913 41.5658 52.5764 42.8432 52.7848C42.8432 52.7848 43.8689 52.9114 44.1805 52.9406L44.3784 53.408C43.1467 54.132 41.8634 54.7645 40.5388 55.3002H40.5258ZM49.8702 49.1334C46.8517 51.7299 42.5576 51.1717 39.6235 50.4706C35.1282 49.3865 27.9552 45.3229 26.0727 44.0798C26.1181 44.0279 26.2382 43.8526 26.2837 43.8039C29.789 45.06 43.9305 48.6141 53.1159 43.9435C53.184 44.0149 53.2457 44.0928 53.3106 44.161C53.3755 44.2291 53.5443 44.3849 53.6157 44.4531C52.5317 46.138 51.2766 47.7065 49.8702 49.1334V49.1334ZM48.1532 43.7715C48.5352 43.3878 48.8258 42.9229 49.0036 42.4115L50.3018 38.3771H48.2863C46.6926 40.7952 42.8627 40.4284 39.6884 38.4583C34.6933 35.3457 31.2301 33.4339 28.7796 33.2879C28.4544 33.2681 28.1279 33.2833 27.8059 33.3333V33.3333C28.1889 37.1632 28.9419 39.5391 29.3671 40.6297C29.4629 40.8742 29.5713 41.1136 29.6917 41.347L29.2113 41.2398C29.0766 41.0691 28.9509 40.8914 28.8348 40.7076C28.2408 39.7988 27.0659 37.6891 26.1344 34.0798C25.4141 34.6539 24.9328 35.4752 24.7842 36.3843C24.7555 36.6505 24.7415 36.9182 24.742 37.186L25.7579 39.5618L27.0821 42.6485C26.6115 42.4732 26.0143 42.2233 25.3262 41.9409C20.6232 39.9935 11.0841 36.0273 3.85266 39.3995C2.4829 35.5859 1.96373 31.5188 2.33155 27.4833C2.69937 23.4479 3.94526 19.5417 5.98192 16.0385C8.01858 12.5353 10.7967 9.51994 14.1216 7.20367C17.4466 4.8874 21.2378 3.32629 25.2297 2.62976C29.2216 1.93322 33.3175 2.11811 37.2304 3.17147C41.1432 4.22482 44.7784 6.12116 47.8811 8.72757C50.9839 11.334 53.479 14.5874 55.1918 18.2598C56.9045 21.9323 57.7934 25.9348 57.7962 29.987C57.7962 32.4927 57.2769 36.1149 56.8225 37.2314C55.3035 40.6751 52.1454 42.7231 48.1402 43.7455" fill="white"/>
<path d="M44.8971 26.7471C45.2357 24.5221 45.9688 22.3755 47.062 20.4082C44.5273 18.9085 41.6462 18.0935 38.7015 18.0435C35.7568 17.9934 32.8497 18.7099 30.2655 20.1226C29.8237 20.9349 29.4482 21.7816 29.1425 22.6543V22.6543V22.6835C28.1497 22.956 27.1921 23.3438 26.2895 23.8389C25.3276 25.2981 24.7946 26.998 24.751 28.7452C24.7073 30.4924 25.1549 32.2167 26.0428 33.7221L25.7962 32.2161C26.569 31.7197 27.4747 31.4706 28.3927 31.502C31.0867 31.502 34.7738 33.0989 38.7335 35.9811C38.7011 35.8967 38.6686 35.8123 38.6394 35.7279C37.246 31.8744 37.3619 27.6365 38.964 23.8649C37.628 23.1284 36.1738 22.6308 34.6667 22.3946L34.7316 22.1869C36.5547 22.331 38.3413 22.7763 40.0188 23.5046C38.8495 26.9651 38.916 30.7239 40.2071 34.1408C42.6235 35.0636 44.79 36.5398 46.5329 38.4511L46.7601 38.3505C44.9419 34.7735 44.2904 30.7167 44.8971 26.7503" fill="white"/>
<path d="M17.112 20.8373C17.2905 22.7588 17.6151 26.0304 17.6151 26.0304H18.1928C18.1928 26.0304 18.5174 22.7425 18.7089 20.8373C18.816 19.6753 19.2769 19.1625 20.1045 18.9613C20.7732 18.7925 22.8958 18.5004 22.8958 18.5004V17.9486C21.9131 17.8528 20.9374 17.6945 19.9747 17.4748C19.6442 17.4034 19.3411 17.2385 19.1017 16.9997C18.8623 16.7609 18.6966 16.4582 18.6245 16.1278C18.4265 15.3878 18.1766 13.0801 18.1766 13.0801H17.6346C17.5298 14.1032 17.3739 15.1203 17.1672 16.1278C17.0982 16.4585 16.9344 16.762 16.6958 17.0012C16.4572 17.2404 16.1541 17.405 15.8235 17.4748C15.1159 17.7117 12.9023 17.9486 12.9023 17.9486V18.5004C12.9023 18.5004 15.0088 18.8055 15.6936 18.9743C16.5213 19.1755 16.9919 19.6883 17.1023 20.8503" fill="white"/>
<path d="M39.6952 15.3483L39.2213 17.4256C37.7963 16.2271 36.0257 15.5153 34.1677 15.3938L34.0898 15.0887C34.9801 14.6936 35.9502 14.5115 36.9232 14.5565C37.8961 14.6016 38.8452 14.8727 39.6952 15.3483" fill="white"/>
<path d="M85.5496 15.4854C88.6741 15.4854 91.2242 16.432 93.1997 18.3253C95.1471 20.2176 96.15 22.6032 96.15 25.4853C96.15 28.3675 95.1569 30.7596 93.1835 32.6583C91.2101 34.5571 88.6687 35.4951 85.5496 35.4951H80.4441V44.0605H72.7031V15.4983L85.5496 15.4854ZM80.4441 22.4376V28.5623H85.1244C85.5518 28.5686 85.9763 28.4904 86.3735 28.3322C86.7706 28.174 87.1326 27.939 87.4386 27.6405C87.7388 27.3705 87.9788 27.0404 88.1431 26.6717C88.3074 26.3029 88.3923 25.9037 88.3923 25.5C88.3923 25.0962 88.3074 24.697 88.1431 24.3283C87.9788 23.9595 87.7388 23.6294 87.4386 23.3594C87.1336 23.0595 86.7718 22.8234 86.3745 22.6652C85.9771 22.5069 85.5521 22.4295 85.1244 22.4376H80.4441Z" fill="#042354"/>
<path d="M115.725 36.2935C116.241 35.752 116.644 35.114 116.913 34.4161C117.181 33.7182 117.309 32.9742 117.29 32.2267V15.4854H125.04V32.2267C125.04 35.8164 123.81 38.8154 121.337 41.2465C118.864 43.6775 115.748 44.8816 111.989 44.8816C108.231 44.8816 105.118 43.6645 102.645 41.2465C100.172 38.8284 98.9385 35.8164 98.9385 32.2267V15.4854H106.686V32.2267C106.649 33.7365 107.213 35.1993 108.254 36.2935C108.727 36.8119 109.304 37.2259 109.947 37.5092C110.589 37.7924 111.284 37.9387 111.986 37.9387C112.688 37.9387 113.383 37.7924 114.026 37.5092C114.668 37.2259 115.245 36.8119 115.719 36.2935" fill="#042354"/>
<path d="M137.894 35.6153C138.657 36.3816 139.569 36.9834 140.574 37.3837C141.579 37.7839 142.655 37.9741 143.736 37.9425C145.156 37.951 146.56 37.6381 147.842 37.0272C149.14 36.4138 150.059 35.8036 150.633 35.1739L151.497 34.2586L155.973 39.1629C155.83 39.3821 155.674 39.5923 155.505 39.7925C155.061 40.2817 154.583 40.7404 154.077 41.1655C153.32 41.8222 152.502 42.4068 151.636 42.9117C150.547 43.5025 149.391 43.9602 148.193 44.2748C146.742 44.6814 145.243 44.8856 143.736 44.8818C139.3 44.8818 135.537 43.3953 132.444 40.4222C129.352 37.4491 127.811 33.8994 127.819 29.7731C127.819 25.638 129.36 22.0872 132.441 19.1207C135.522 16.1541 139.286 14.6687 143.733 14.6643C145.21 14.6556 146.68 14.8545 148.102 15.2551C149.299 15.577 150.448 16.0596 151.516 16.6897C152.337 17.1945 153.122 17.7551 153.866 18.3677C154.401 18.7911 154.888 19.271 155.32 19.799L155.771 20.3833L151.068 25.2843C150.99 25.1707 150.89 25.0376 150.744 24.8721C150.458 24.5614 150.154 24.2687 149.832 23.9957C149.363 23.5855 148.86 23.2152 148.329 22.8889C146.926 22.0816 145.341 21.6448 143.723 21.6199C142.644 21.5924 141.57 21.7843 140.567 22.1839C139.563 22.5835 138.652 23.1826 137.887 23.9448C137.122 24.7071 136.519 25.6166 136.116 26.6184C135.713 27.6202 135.517 28.6934 135.541 29.7731C135.513 30.8552 135.706 31.9317 136.109 32.9364C136.512 33.9411 137.116 34.8527 137.884 35.6153" fill="#042354"/>
<path d="M171.437 15.4854C174.579 15.4854 177.13 16.432 179.09 18.3253C181.064 20.2176 182.041 22.6032 182.041 25.4853C182.041 28.3675 181.067 30.7596 179.084 32.6583C177.101 34.5571 174.572 35.4951 171.437 35.4951H166.338V44.0605H158.584V15.4983L171.437 15.4854ZM166.338 22.4376V28.5623H171.025C171.452 28.5692 171.876 28.4913 172.273 28.3331C172.669 28.1749 173.031 27.9395 173.336 27.6405C173.638 27.3716 173.879 27.0419 174.045 26.673C174.21 26.3041 174.296 25.9043 174.296 25.5C174.296 25.0956 174.21 24.6959 174.045 24.3269C173.879 23.958 173.638 23.6283 173.336 23.3594C173.031 23.0599 172.67 22.8241 172.273 22.6658C171.876 22.5075 171.452 22.4299 171.025 22.4376H166.338Z" fill="#042354"/>
</svg>
